<svg xmlns="http://www.w3.org/2000/svg" width = "100%" height="100%" viewBox ="0 0 1500 1500">
<style>
.c0{ fill: rgb(123,228,218); stroke: rgb(123,228,218);}
</style>
<g transform="scale(0.1 0.1)" stroke-width="10">
<path d="M 2327, 8441c 6,-85 10,-171 18,-256c 6,-59 13,-117 19,-175c 2,-25 3,-50 6,-75c 6,-61 12,-122 20,-183c 4,-33 10,-65 14,-98c 9,-69 17,-138 29,-206c 4,-26 10,-52 15,-78c 4,-21 6,-41 10,-62c 11,-60 24,-120 36,-180c 6,-29 10,-58 17,-86c 16,-73 33,-146 50,-219c 18,-78 36,-156 55,-234c 4,-16 9,-33 13,-49c 20,-82 41,-163 68,-243c 21,-62 39,-125 64,-186c 6,-15 13,-29 20,-43c 22,-44 45,-87 73,-127c 59,-85 135,-157 222,-212c 95,-61 204,-100 314,-123c 100,-20 206,-23 306,4c 106,29 202,94 269,182c 62,82 102,177 139,272c 26,67 47,136 66,205c 6,22 10,44 16,67c 9,33 17,66 25,99c 4,17 7,34 10,51c 6,25 12,50 18,75c 5,23 9,46 13,69c 4,20 9,39 14,59c 31,152 59,304 88,457c 7,37 15,75 21,112c 5,27 8,53 12,80c 5,29 12,58 16,87c 26,166 51,331 76,497c 11,74 21,148 35,221c 11,56 23,111 48,163c 20,40 49,96 102,93c 31,-1 56,-23 78,-44c 31,-30 54,-68 74,-106c 19,-35 35,-71 52,-107c 24,-53 49,-107 71,-160c 16,-37 30,-75 44,-113c 20,-53 41,-106 62,-158c 29,-75 60,-150 90,-225c 16,-40 31,-81 47,-121c 35,-87 72,-174 108,-260c 43,-101 83,-203 127,-304c 31,-70 65,-140 97,-210c 35,-77 70,-155 107,-231c 32,-66 66,-132 99,-198c 36,-70 70,-142 105,-212c 23,-44 46,-88 69,-132c 50,-95 98,-191 149,-286c 26,-48 54,-95 80,-143c 32,-56 65,-112 100,-167c 34,-52 64,-106 102,-155c 124,-161 321,-311 536,-258c 95,23 179,82 233,164c 36,54 58,114 75,175c 30,106 41,216 45,325c 4,98 1,197 -2,295c -3,96 -7,192 -14,289c -4,54 -8,107 -11,161c -1,26 -2,52 -3,77c -7,117 -15,233 -24,350c -4,55 -12,110 -17,165c -8,91 -13,183 -19,274c -2,25 -5,49 -7,74c -8,113 -17,227 -24,340c -2,29 -2,58 -4,87c -8,123 -19,246 -26,369c -4,61 -4,123 -7,185c -4,82 -11,164 -17,246c -8,108 -9,216 -19,324c -5,58 -12,115 -21,172c -6,37 -15,74 -22,111c -14,66 -29,132 -53,196c -19,52 -45,102 -71,151c -29,54 -65,106 -104,153c -71,85 -149,160 -242,219c -76,48 -167,84 -258,81c -51,-2 -103,-15 -147,-42c -58,-36 -99,-94 -124,-157c -38,-97 -45,-205 -48,-308c -3,-76 -1,-152 1,-228c 1,-36 2,-71 4,-107c 3,-60 9,-120 12,-180c 6,-123 8,-246 13,-370c 4,-110 10,-221 11,-331c 1,-123 -2,-247 0,-370c 2,-142 13,-283 12,-425c 0,-48 -1,-97 -11,-144c -3,-16 -9,-47 -27,-52c -16,-5 -30,9 -39,19c -24,25 -40,56 -55,87c -33,67 -59,137 -87,206c -70,172 -137,345 -209,516c -14,34 -30,68 -45,103c -38,88 -77,176 -117,263c -15,34 -33,66 -48,100c -50,107 -103,213 -159,318c -20,37 -41,73 -61,109c -27,49 -57,97 -95,139c -51,57 -116,105 -190,126c -75,21 -155,13 -226,-19c -76,-34 -137,-92 -187,-157c -59,-77 -101,-165 -137,-255c -26,-67 -47,-136 -66,-205c -6,-22 -10,-44 -16,-67c -36,-137 -63,-276 -89,-415c -4,-23 -10,-45 -14,-68c -20,-100 -40,-200 -60,-300c -35,-177 -69,-355 -106,-532c -4,-20 -9,-39 -14,-59c -6,-26 -9,-52 -15,-77c -6,-25 -12,-50 -18,-75c -9,-45 -20,-90 -30,-135c -12,-50 -22,-101 -35,-151c -7,-27 -13,-54 -23,-81c -5,-15 -12,-30 -18,-45c -8,-18 -17,-35 -31,-49c -9,-10 -18,-18 -32,-20c -17,-2 -28,7 -39,19c -24,25 -35,58 -46,90c -24,68 -39,137 -54,208c -9,43 -18,85 -26,129c -8,47 -14,95 -20,143c -6,42 -13,83 -18,125c -8,67 -15,135 -22,202c -8,73 -17,147 -24,220c -3,31 -4,63 -7,94c -5,61 -14,122 -20,184c -6,66 -9,132 -14,198c -4,46 -11,92 -14,138c -7,91 -12,183 -19,274c -2,22 -5,43 -6,65c -3,44 -6,88 -9,132c -1,19 -3,38 -4,57c -1,19 -3,38 -4,57c -1,19 -3,38 -4,57c -2,22 -4,43 -6,65c -2,22 -4,44 -5,66c -2,22 -3,44 -5,66c -2,22 -3,44 -5,66c -2,22 -3,44 -5,66c -2,22 -3,44 -5,66c -2,25 -4,49 -7,74c -3,25 -5,50 -6,75c -2,25 -4,50 -5,76c -2,25 -4,50 -5,76c -2,25 -3,50 -6,75c -3,27 -6,54 -11,81c -5,29 -10,57 -17,86c -21,91 -55,177 -111,252c -22,30 -48,56 -78,78c -68,50 -150,72 -233,79c -50,4 -99,5 -148,-2c -82,-12 -162,-48 -222,-106c -75,-72 -119,-172 -144,-272c -17,-70 -24,-143 -29,-215c -5,-74 -8,-147 -11,-221c -1,-42 -4,-84 -4,-127c -1,-50 0,-100 0,-150c 0,-43 -1,-87 0,-130c 1,-55 4,-111 6,-166c 3,-84 4,-169 10,-253z" class="c0"/>
<path d="M 7744, 7935c 5,-125 33,-248 62,-369c 7,-31 13,-62 21,-92c 24,-93 61,-185 135,-250c 47,-41 114,-62 173,-35c 52,24 86,71 109,121c 44,93 35,202 15,301c -25,124 -69,243 -98,365c -19,80 -34,162 -22,244c 9,62 33,134 96,161c 67,29 138,-4 194,-40c 43,-28 79,-63 115,-99c 53,-52 100,-109 148,-166c 32,-39 62,-78 99,-112c 11,-10 125,-104 133,-51c 5,33 -13,69 -25,98c -18,42 -39,82 -67,118c -32,43 -69,82 -104,122c -24,27 -49,51 -74,77c -70,70 -145,138 -233,185c -35,19 -74,32 -113,43c -37,10 -75,17 -113,19c -117,4 -233,-49 -312,-134c -39,-43 -70,-97 -91,-151c -11,-27 -18,-55 -25,-83c -22,-86 -27,-175 -24,-263z" class="c0"/>
<path d="M 8036, 6675c 6,-63 33,-125 80,-168c 27,-25 60,-42 97,-43c 26,-1 53,9 74,26c 55,43 78,116 74,184c -1,23 -8,46 -16,67c -16,43 -43,84 -80,112c -21,16 -46,29 -73,31c -77,7 -130,-58 -148,-127c -6,-25 -7,-50 -6,-75z" class="c0"/>
<path d="M 9110, 8204c 3,-47 6,-95 10,-142c 6,-68 14,-135 22,-203c 15,-138 30,-275 45,-413c 8,-76 17,-152 26,-229c 7,-67 14,-135 22,-202c 4,-30 9,-60 13,-89c 6,-52 10,-104 17,-156c 3,-27 8,-54 12,-80c 5,-43 9,-86 14,-128c 5,-42 12,-83 18,-125c 3,-24 5,-49 9,-73c 16,-116 33,-232 51,-347c 4,-23 9,-46 13,-70c 6,-39 11,-77 17,-116c 5,-29 11,-58 16,-87c 5,-33 9,-65 15,-98c 4,-26 10,-52 15,-78c 4,-27 7,-53 12,-80c 26,-150 54,-299 87,-447c 6,-26 10,-52 15,-77c 8,-36 17,-72 26,-108c 20,-80 45,-157 95,-224c 22,-30 47,-55 78,-75c 34,-22 70,-35 111,-38c 82,-6 162,33 219,89c 52,52 86,121 107,191c 38,121 40,249 31,375c -3,46 -9,92 -14,138c -6,53 -8,106 -14,159c -11,107 -23,214 -35,320c -11,95 -20,190 -30,285c -19,177 -38,355 -57,532c -6,55 -12,110 -18,165c -6,57 -12,113 -12,170c 0,34 2,67 8,100c 6,29 16,60 39,81c 24,22 55,23 86,15c 69,-17 124,-68 178,-111c 74,-59 150,-116 224,-175c 87,-68 174,-135 266,-197c 37,-24 74,-47 112,-69c 59,-33 119,-64 185,-77c 60,-12 130,-3 175,43c 47,47 48,118 34,179c -21,98 -85,182 -152,254c -40,43 -82,83 -126,122c -12,10 -23,21 -35,30c -32,25 -65,50 -97,76c -24,19 -48,37 -70,58c -33,33 -63,70 -86,111c -19,35 -31,75 -37,115c -12,89 20,177 61,255c 14,28 32,54 47,80c 51,87 104,174 155,261c 20,34 40,67 59,101c 27,48 53,96 80,143c 55,94 112,186 174,275c 42,61 87,121 137,176c 17,19 36,36 54,54c 11,11 21,22 33,32c 38,34 77,68 121,94c 156,95 339,135 520,133c 92,-1 183,-18 274,-35c 61,-12 121,-30 181,-47c 32,-9 63,-21 94,-30c 27,-8 54,-13 82,-19c 38,-8 80,-13 119,-3c 28,7 47,27 42,57c -4,33 -23,61 -43,86c -30,38 -65,69 -104,99c -65,51 -135,96 -209,132c -26,13 -54,23 -81,35c -46,19 -91,36 -138,50c -85,24 -172,40 -260,47c -76,6 -152,4 -228,-2c -49,-4 -99,-7 -148,-16c -84,-15 -167,-37 -249,-61c -172,-51 -337,-123 -492,-214c -18,-10 -36,-20 -54,-31c -53,-32 -103,-68 -153,-104c -43,-32 -83,-68 -123,-103c -52,-45 -101,-93 -150,-143c -18,-18 -37,-36 -54,-54c -57,-59 -110,-122 -164,-183c -51,-58 -106,-112 -155,-170c -15,-18 -30,-35 -44,-53c -25,-32 -49,-65 -77,-95c -34,-37 -75,-76 -126,-88c -78,-18 -116,65 -135,126c -22,73 -30,148 -35,224c -4,64 -8,128 -10,192c -2,55 -8,109 -20,162c -21,99 -75,218 -186,237c -73,12 -143,-25 -200,-67c -31,-22 -56,-49 -79,-79c -14,-18 -28,-36 -40,-55c -20,-31 -35,-65 -49,-99c -25,-62 -43,-128 -53,-195c -6,-38 -9,-76 -12,-114c -3,-46 -6,-92 -6,-138c 0,-46 3,-93 5,-139z" class="c0"/>
</g>
</svg>